# 3ds Max Wavefront OBJ Exporter v0.97b - (c)2007 guruware
# File Created: 08.09.2017 16:30:15

mtllib cartel-boss.mtl

#
# object Plane001
#

v  23.3237 -13.8389 0.1350
v  23.2912 17.8770 0.1262
v  -26.7196 13.6530 0.1348
v  -23.7353 -17.1903 0.1436
v  24.5558 26.1263 2.9139
v  -29.5440 21.3013 2.9139
v  -28.5447 14.7910 2.9139
v  25.2076 18.7695 2.9139
v  -25.4027 -23.8131 2.9139
v  26.1922 -21.6529 2.9139
v  25.0768 -15.0964 2.9139
v  -25.4860 -18.2332 2.9139
v  30.3151 19.0752 2.9139
v  28.7580 24.8227 2.9139
v  31.7342 -15.9748 2.9139
v  31.4958 -22.3494 2.9139
v  -31.2206 -18.7366 2.9139
v  -29.8859 -23.2655 2.9139
v  -33.2339 14.8287 2.9139
v  -33.9635 18.3925 2.9139
v  25.9238 27.6570 -3.1351
v  -31.1676 22.5207 -3.1351
v  -26.6654 -25.2486 -3.1351
v  27.7625 -22.9285 -3.1351
v  32.1527 20.0310 -3.1351
v  30.4687 26.2471 -3.1351
v  33.7592 -16.8259 -3.1351
v  33.4985 -23.6818 -3.1351
v  -32.9537 -19.7915 -3.1351
v  -31.5142 -24.6564 -3.1351
v  -35.1583 15.5204 -3.1351
v  -35.9474 19.3747 -3.1351
v  -28.7769 15.9663 -3.1351
v  -26.5152 -19.0404 -3.1351
v  24.1898 19.9505 -3.1351
v  25.4304 -17.3523 -3.1351
v  24.2227 -3.2406 -0.0000
v  38.9814 -1.6990 -0.0000
v  38.4262 9.0349 -0.0000
v  24.2678 9.9313 -0.0000
v  40.5818 -9.6378 0.0000
v  49.3263 0.4536 -0.0000
v  49.0646 6.1100 -0.0000
v  38.8549 16.5079 -0.0000
v  52.2220 3.3870 0.0000
v  21.5535 -4.4019 -5.9553
v  38.8824 -2.5918 -5.9553
v  38.2305 10.0115 -5.9553
v  21.6065 11.0639 -5.9553
v  40.7615 -11.9131 -5.9553
v  51.0289 -0.0643 -5.9553
v  50.7217 6.5771 -5.9553
v  38.7339 18.7858 -5.9553
v  54.4289 3.3800 -5.9553
v  0.2355 -46.0843 2.3376
v  -2.1841 -46.2082 -1.0403
v  2.7160 -46.2452 -4.5489
v  5.1356 -46.1213 -1.1709
v  -0.1338 -16.2464 1.5073
v  4.7663 -16.2833 -2.0012
v  1.6470 -16.4657 -2.4890
v  -2.5534 -16.3703 -1.8706
# 62 vertices

vn -0.4016 0.4179 0.8149
vn -0.3364 -0.5308 0.7779
vn 0.4254 -0.4037 0.8100
vn 0.3296 0.5202 0.7879
vn 0.0530 0.6490 0.7589
vn -0.1990 0.6298 0.7508
vn 0.1814 -0.1448 0.9727
vn -0.1702 -0.1565 0.9729
vn -0.0189 -0.6367 0.7709
vn -0.0186 -0.6109 0.7915
vn -0.1817 0.1628 0.9698
vn 0.1739 0.1794 0.9683
vn 0.6080 0.0887 0.7889
vn 0.4790 0.4705 0.7410
vn 0.5938 0.0029 0.8046
vn 0.4226 -0.5711 0.7037
vn -0.6108 -0.1015 0.7852
vn -0.4335 -0.5357 0.7247
vn -0.5740 -0.0718 0.8157
vn -0.6356 0.2564 0.7282
vn 0.1055 0.8211 -0.5610
vn -0.2958 0.7813 -0.5496
vn -0.0395 -0.8011 -0.5972
vn -0.0440 -0.7523 -0.6573
vn 0.8164 0.1327 -0.5621
vn 0.6361 0.6053 -0.4784
vn 0.8186 -0.0005 -0.5744
vn 0.6068 -0.6644 -0.4363
vn -0.8107 -0.1501 -0.5659
vn -0.5795 -0.6629 -0.4741
vn -0.7811 -0.1091 -0.6149
vn -0.8143 0.3445 -0.4672
vn -0.0000 0.0000 -1.0000
vn -0.0000 -0.0000 -1.0000
vn 0.0000 -0.0000 -1.0000
vn -0.4030 -0.5699 0.7161
vn -0.2309 -0.3344 0.9137
vn -0.2417 0.2923 0.9253
vn -0.4146 0.5579 0.7190
vn -0.2554 -0.6954 0.6717
vn 0.4417 -0.4065 0.7998
vn 0.4160 0.4404 0.7956
vn -0.3214 0.6681 0.6710
vn 0.7093 0.0350 0.7041
vn -0.6538 -0.6319 0.4162
vn -0.6149 -0.7783 0.1269
vn -0.6869 0.7133 0.1395
vn -0.6631 0.6230 0.4148
vn -0.1909 -0.9189 0.3453
vn 0.7073 -0.6577 0.2594
vn 0.6612 0.7108 0.2397
vn -0.2867 0.8928 0.3473
vn 0.9372 0.0323 0.3473
vn -0.1261 -0.5564 0.8213
vn -0.5662 -0.7024 0.4314
vn 0.0124 -0.9995 0.0278
vn 0.4203 -0.6857 0.5943
vn -0.1405 0.5978 0.7893
vn 0.5130 0.4805 0.7113
vn -0.0161 0.9659 -0.2583
vn -0.6686 0.5863 0.4574
# 61 vertex normals

vt 0.1618 0.1757 0.0000
vt 0.4899 0.1522 0.0000
vt 0.4826 0.6791 0.0000
vt 0.1613 0.6705 0.0000
vt 0.5759 0.1325 0.0000
vt 0.5646 0.7035 0.0000
vt 0.5001 0.7018 0.0000
vt 0.5031 0.1273 0.0000
vt 0.0910 0.6958 0.0000
vt 0.0744 0.1501 0.0000
vt 0.1428 0.1543 0.0000
vt 0.1461 0.6938 0.0000
vt 0.5022 0.0762 0.0000
vt 0.5592 0.0944 0.0000
vt 0.1322 0.0866 0.0000
vt 0.0721 0.0991 0.0000
vt 0.1482 0.7515 0.0000
vt 0.1044 0.7375 0.0000
vt 0.5031 0.7494 0.0000
vt 0.5386 0.7472 0.0000
vt 0.6351 0.1062 0.0000
vt 0.6219 0.7324 0.0000
vt 0.0312 0.7222 0.0000
vt 0.0098 0.1296 0.0000
vt 0.5202 0.0129 0.0000
vt 0.6010 0.0454 0.0000
vt 0.1126 0.0221 0.0000
vt 0.0283 0.0545 0.0000
vt 0.1283 0.8142 0.0000
vt 0.0620 0.7850 0.0000
vt 0.5204 0.8143 0.0000
vt 0.5774 0.7984 0.0000
vt 0.0332 0.9669 0.0000
vt 0.0329 0.8651 0.0000
vt 0.0513 0.8649 0.0000
vt 0.0518 0.9658 0.0000
vt 0.2040 0.8626 0.0000
vt 0.2269 0.8637 0.0000
vt 0.2252 0.9698 0.0000
vt 0.2012 0.9699 0.0000
vt 0.0313 0.8539 0.0000
vt 0.0456 0.8457 0.0000
vt 0.2103 0.8408 0.0000
vt 0.2231 0.8456 0.0000
vt 0.0503 0.9836 0.0000
vt 0.0365 0.9811 0.0000
vt 0.2233 0.9894 0.0000
vt 0.2070 0.9863 0.0000
vt 0.7613 0.6576 0.0000
vt 0.7634 0.3819 0.0000
vt 0.8775 0.3892 0.0000
vt 0.8767 0.6527 0.0000
vt 0.6903 0.3276 0.0000
vt 0.7838 0.1727 0.0000
vt 0.8400 0.1730 0.0000
vt 0.9441 0.3413 0.0000
vt 0.8116 0.1332 0.0000
vt 0.7313 0.7495 0.0000
vt 0.7086 0.4340 0.0000
vt 0.9339 0.4425 0.0000
vt 0.9070 0.7449 0.0000
vt 0.6387 0.3176 0.0000
vt 0.7534 0.0749 0.0000
vt 0.8683 0.0733 0.0000
vt 0.9961 0.3277 0.0000
vt 0.8105 0.0243 0.0000
vt 0.4031 0.9257 0.0000
vt 0.3767 0.9767 0.0000
vt 0.3111 0.8708 0.0000
vt 0.3834 0.8307 0.0000
vt 0.9097 0.9229 0.0000
vt 0.9252 0.8268 0.0000
vt 0.9506 0.8845 0.0000
vt 0.9384 0.9719 0.0000
# 74 texture coords

o Plane001
g Plane001
usemtl wire_086086086
s off
f 1/1/1 2/2/2 3/3/3 4/4/4 
f 5/5/5 6/6/6 7/7/7 8/8/8 
f 9/9/9 10/10/10 11/11/11 12/12/12 
f 5/5/5 8/8/8 13/13/13 14/14/14 
f 8/8/8 11/11/11 15/15/15 13/13/13 
f 11/11/11 10/10/10 16/16/16 15/15/15 
f 9/9/9 12/12/12 17/17/17 18/18/18 
f 12/12/12 7/7/7 19/19/19 17/17/17 
f 7/7/7 6/6/6 20/20/20 19/19/19 
f 6/6/6 5/5/5 21/21/21 22/22/22 
f 10/10/10 9/9/9 23/23/23 24/24/24 
f 14/14/14 13/13/13 25/25/25 26/26/26 
f 5/5/5 14/14/14 26/26/26 21/21/21 
f 13/13/13 15/15/15 27/27/27 25/25/25 
f 16/16/16 10/10/10 24/24/24 28/28/28 
f 15/15/15 16/16/16 28/28/28 27/27/27 
f 18/18/18 17/17/17 29/29/29 30/30/30 
f 9/9/9 18/18/18 30/30/30 23/23/23 
f 17/17/17 19/19/19 31/31/31 29/29/29 
f 20/20/20 6/6/6 22/22/22 32/32/32 
f 19/19/19 20/20/20 32/32/32 31/31/31 
f 7/7/7 12/12/12 4/4/4 3/3/3 
f 12/12/12 11/11/11 1/1/1 4/4/4 
f 11/11/11 8/8/8 2/2/2 1/1/1 
f 8/8/8 7/7/7 3/3/3 2/2/2 
s 1
f 29/33/29 31/34/31 33/35/33 34/36/34 
f 35/37/35 25/38/25 27/39/27 36/40/33 
f 36/40/33 34/36/34 33/35/33 35/37/35 
s off
f 32/41/32 22/42/22 33/35/33 31/34/31 
f 21/43/21 26/44/26 25/38/25 35/37/35 
f 23/45/23 30/46/30 29/33/29 34/36/34 
f 28/47/28 24/48/24 36/40/33 27/39/27 
f 34/36/34 36/40/33 24/48/24 23/45/23 
f 22/42/22 21/43/21 35/37/35 33/35/33 
f 37/49/36 38/50/37 39/51/38 40/52/39 
f 41/53/40 42/54/41 43/55/42 44/56/43 
f 44/56/43 39/51/38 38/50/37 41/53/40 
f 43/55/42 42/54/41 45/57/44 
f 38/50/37 37/49/36 46/58/45 47/59/46 
f 40/52/39 39/51/38 48/60/47 49/61/48 
f 37/49/36 40/52/39 49/61/48 46/58/45 
f 42/54/41 41/53/40 50/62/49 51/63/50 
f 44/56/43 43/55/42 52/64/51 53/65/52 
f 39/51/38 44/56/43 53/65/52 48/60/47 
f 41/53/40 38/50/37 47/59/46 50/62/49 
f 43/55/42 45/57/44 54/66/53 52/64/51 
f 45/57/44 42/54/41 51/63/50 54/66/53 
s 2
f 55/67/54 56/68/55 57/69/56 58/70/57 
s 4
f 59/71/58 60/72/59 61/73/60 62/74/61 
s 8
f 55/67/54 58/70/57 60/72/59 59/71/58 
s 64
f 56/68/55 55/67/54 59/71/58 62/74/61 
# 50 polygons - 1 triangles

