# 3ds Max Wavefront OBJ Exporter v0.97b - (c)2007 guruware
# File Created: 05.09.2017 21:16:50

mtllib grass2.mtl

#
# object Plane001
#

v  -41.6005 -4.9729 9.2726
v  -48.1598 9.0430 9.0647
v  -44.8315 -4.9726 9.2726
v  12.2387 40.5823 -24.7411
v  28.9808 -4.4651 -23.8739
v  21.3940 73.5857 -27.3180
v  -2.5010 58.9940 15.1352
v  -6.2401 19.8054 20.0713
v  2.8994 -4.6241 22.7988
v  11.8957 46.4414 4.9549
v  8.8296 20.2331 6.4724
v  16.5032 -2.7364 6.9619
v  -0.5962 -2.6659 -6.7962
v  9.7585 64.0233 -9.6967
v  6.8091 90.1264 -12.9478
v  -8.8302 -2.5888 39.8026
v  -11.2643 33.8333 33.9997
v  -12.7496 -2.5823 39.8026
v  -24.3186 45.6642 7.1810
v  -34.3384 -4.5499 9.2704
v  -24.7811 -4.5538 9.2703
v  -42.1369 48.1763 6.9922
v  11.4329 -4.4613 -23.8743
v  -3.5548 -4.6224 22.7989
v  10.9688 -2.7300 6.9619
v  9.0796 -2.6791 -6.7959
v  -17.7508 51.8114 31.6040
v  -25.6088 73.2950 4.5154
v  -50.1610 10.4851 -3.4600
v  -45.6221 -5.0292 -3.4547
v  -40.4106 -5.0295 -3.4547
v  34.7750 -4.5500 -39.2836
v  25.3234 103.1697 -46.2418
v  8.7353 49.4941 -41.0041
v  1.1214 86.4329 -0.8382
v  -7.9613 23.1173 7.6493
v  5.1339 -4.6903 10.0367
v  13.0466 63.8748 -4.2418
v  7.1682 21.4998 -1.4056
v  18.6626 -2.7844 -1.1134
v  13.9826 76.2391 -25.5276
v  11.2327 118.6812 -32.2799
v  -4.4043 -2.7633 -21.7343
v  -7.7640 -2.6483 31.9701
v  -9.2392 39.1536 26.2853
v  -14.0858 -2.6378 31.9702
v  -38.9074 -4.6324 -3.4499
v  -23.4916 -4.6381 -3.4499
v  -20.3240 56.2633 -5.7416
v  -37.4724 73.4299 -7.5290
v  6.4770 -4.5448 -39.2848
v  -5.2750 -4.6880 10.0367
v  9.7387 -2.7748 -1.1135
v  11.1961 -2.7839 -21.7324
v  -18.4657 68.2009 22.4736
v  -19.7111 100.9797 -11.4302
v  -15.4389 72.7108 -34.8358
v  -15.1177 -7.2042 -28.4886
v  -1.0077 -3.7538 -29.5268
v  -24.8661 113.7457 -41.8662
v  -22.4432 -9.4986 -47.0534
v  0.3115 -3.9748 -49.5703
v  -13.1918 89.5512 -57.3040
v  -24.1811 157.5318 -69.0412
v  -45.7295 -2.6114 -22.2575
v  -35.2705 65.4883 -24.9978
v  -35.9103 92.0797 -28.1929
v  -36.0926 -2.6370 -22.2550
v  -30.8250 77.7788 -41.2581
v  -28.6635 120.8439 -47.3922
v  -49.5355 -2.7043 -37.4024
v  -33.9886 -2.7453 -37.3945
v  -110.3106 -4.9729 9.2726
v  -116.8699 9.0430 9.0647
v  -113.5416 -4.9726 9.2726
v  -56.4714 40.5823 -24.7411
v  -39.7293 -4.4651 -23.8739
v  -47.3161 73.5857 -27.3180
v  -71.2111 58.9940 15.1352
v  -74.9502 19.8054 20.0713
v  -65.8107 -4.6241 22.7988
v  -56.8144 46.4414 4.9549
v  -59.8805 20.2331 6.4724
v  -52.2070 -2.7364 6.9619
v  -69.3063 -2.6659 -6.7962
v  -58.9516 64.0234 -9.6967
v  -61.9009 90.1264 -12.9478
v  -77.5403 -2.5888 39.8026
v  -79.9744 33.8333 33.9997
v  -81.4598 -2.5823 39.8026
v  -93.0287 45.6642 7.1810
v  -103.0486 -4.5499 9.2704
v  -93.4912 -4.5538 9.2703
v  -110.8470 48.1763 6.9922
v  -57.2772 -4.4613 -23.8743
v  -72.2649 -4.6224 22.7989
v  -57.7413 -2.7300 6.9619
v  -59.6305 -2.6791 -6.7959
v  -86.4609 51.8114 31.6040
v  -94.3189 73.2950 4.5154
v  -118.8711 10.4851 -3.4600
v  -114.3322 -5.0292 -3.4547
v  -109.1208 -5.0295 -3.4547
v  -33.9351 -4.5500 -39.2836
v  -43.3867 103.1697 -46.2418
v  -59.9748 49.4941 -41.0041
v  -67.5887 86.4329 -0.8382
v  -76.6714 23.1173 7.6493
v  -63.5762 -4.6903 10.0367
v  -55.6635 63.8748 -4.2418
v  -61.5419 21.4998 -1.4056
v  -50.0475 -2.7844 -1.1134
v  -54.7275 76.2391 -25.5276
v  -57.4774 118.6812 -32.2799
v  -73.1144 -2.7633 -21.7343
v  -76.4741 -2.6483 31.9701
v  -77.9494 39.1536 26.2852
v  -82.7959 -2.6378 31.9702
v  -107.6175 -4.6324 -3.4499
v  -92.2017 -4.6381 -3.4498
v  -89.0342 56.2633 -5.7416
v  -106.1825 73.4299 -7.5290
v  -62.2331 -4.5448 -39.2848
v  -73.9851 -4.6880 10.0367
v  -58.9714 -2.7748 -1.1135
v  -57.5140 -2.7839 -21.7324
v  -87.1758 68.2009 22.4736
v  -88.4212 100.9797 -11.4302
v  -67.5972 72.9138 -33.9925
v  -86.9864 -4.5775 -30.6533
v  -72.4278 -4.5829 -30.6525
v  -66.6245 115.0080 -40.0284
v  -93.9486 -4.6996 -50.5593
v  -70.4701 -4.7070 -50.5570
v  -60.5961 89.0162 -55.4959
v  -54.4430 157.6835 -66.0375
v  -114.4396 -2.6114 -22.2575
v  -103.9806 65.4883 -24.9978
v  -104.6204 92.0797 -28.1929
v  -104.8027 -2.6370 -22.2550
v  -99.5351 77.7787 -41.2581
v  -97.3736 120.8439 -47.3922
v  -118.2457 -2.7043 -37.4024
v  -102.6986 -2.7453 -37.3945
v  -183.5858 -4.9729 9.2726
v  -190.1451 9.0430 9.0647
v  -186.8168 -4.9727 9.2726
v  -129.7466 40.5823 -24.7411
v  -113.0045 -4.4651 -23.8738
v  -120.5912 73.5857 -27.3180
v  -144.4863 58.9939 15.1352
v  -148.2254 19.8054 20.0713
v  -139.0858 -4.6241 22.7988
v  -130.0896 46.4414 4.9549
v  -133.1556 20.2331 6.4724
v  -125.4821 -2.7364 6.9619
v  -142.5815 -2.6659 -6.7962
v  -132.2267 64.0233 -9.6967
v  -135.1761 90.1264 -12.9478
v  -150.8155 -2.5888 39.8026
v  -153.2495 33.8333 33.9997
v  -154.7349 -2.5823 39.8026
v  -166.3038 45.6642 7.1810
v  -176.3237 -4.5499 9.2704
v  -166.7663 -4.5538 9.2703
v  -184.1221 48.1763 6.9922
v  -130.5523 -4.4613 -23.8743
v  -145.5400 -4.6224 22.7989
v  -131.0165 -2.7300 6.9619
v  -132.9057 -2.6791 -6.7959
v  -159.7361 51.8114 31.6040
v  -167.5941 73.2950 4.5154
v  -192.1463 10.4851 -3.4600
v  -187.6074 -5.0292 -3.4547
v  -182.3959 -5.0295 -3.4547
v  -107.2102 -4.5500 -39.2836
v  -116.6618 103.1697 -46.2418
v  -133.2500 49.4941 -41.0041
v  -140.8638 86.4329 -0.8382
v  -149.9466 23.1173 7.6493
v  -136.8514 -4.6903 10.0367
v  -128.9387 63.8748 -4.2418
v  -134.8171 21.4998 -1.4056
v  -123.3227 -2.7844 -1.1134
v  -128.0027 76.2391 -25.5276
v  -130.7525 118.6812 -32.2798
v  -146.3895 -2.7633 -21.7343
v  -149.7493 -2.6483 31.9701
v  -151.2245 39.1536 26.2852
v  -156.0710 -2.6378 31.9702
v  -180.8927 -4.6324 -3.4499
v  -165.4768 -4.6381 -3.4499
v  -162.3093 56.2633 -5.7416
v  -179.4577 73.4299 -7.5290
v  -135.5082 -4.5448 -39.2848
v  -147.2603 -4.6880 10.0367
v  -132.2466 -2.7748 -1.1135
v  -130.7891 -2.7839 -21.7324
v  -160.4510 68.2009 22.4736
v  -161.6964 100.9797 -11.4302
v  -140.8724 72.9138 -33.9925
v  -160.2615 -4.5775 -30.6533
v  -145.7029 -4.5829 -30.6525
v  -139.8997 115.0080 -40.0284
v  -167.2237 -4.6996 -50.5593
v  -143.7452 -4.7070 -50.5570
v  -133.8713 89.0162 -55.4959
v  -127.7181 157.6835 -66.0375
v  -187.7148 -2.6114 -22.2575
v  -177.2557 65.4883 -24.9978
v  -177.8956 92.0797 -28.1929
v  -178.0779 -2.6370 -22.2550
v  -172.8103 77.7787 -41.2581
v  -170.6488 120.8439 -47.3922
v  -191.5208 -2.7043 -37.4024
v  -175.9738 -2.7453 -37.3945
v  9.5155 -4.9729 9.2726
v  2.9562 9.0430 9.0647
v  6.2844 -4.9726 9.2726
v  63.3547 40.5823 -24.7411
v  80.0968 -4.4651 -23.8739
v  72.5100 73.5857 -27.3180
v  48.6150 58.9940 15.1352
v  44.8759 19.8054 20.0713
v  54.0154 -4.6241 22.7988
v  63.0117 46.4414 4.9549
v  59.9457 20.2331 6.4724
v  67.6192 -2.7364 6.9619
v  50.5197 -2.6659 -6.7962
v  60.8745 64.0233 -9.6967
v  57.9251 90.1264 -12.9478
v  42.2858 -2.5888 39.8026
v  39.8517 33.8333 33.9997
v  38.3663 -2.5823 39.8026
v  26.7974 45.6642 7.1810
v  16.7775 -4.5499 9.2704
v  26.3349 -4.5538 9.2703
v  8.9791 48.1763 6.9922
v  62.5489 -4.4613 -23.8743
v  47.5612 -4.6224 22.7989
v  62.0848 -2.7300 6.9619
v  60.1956 -2.6791 -6.7959
v  33.3652 51.8114 31.6040
v  25.5072 73.2950 4.5154
v  0.9549 10.4851 -3.4600
v  5.4939 -5.0292 -3.4547
v  10.7053 -5.0295 -3.4547
v  85.8910 -4.5500 -39.2836
v  76.4394 103.1697 -46.2418
v  59.8513 49.4941 -41.0041
v  52.2374 86.4329 -0.8382
v  43.1547 23.1173 7.6493
v  56.2499 -4.6903 10.0367
v  64.1626 63.8748 -4.2418
v  58.2842 21.4998 -1.4056
v  69.7786 -2.7844 -1.1134
v  65.0986 76.2391 -25.5276
v  62.3487 118.6812 -32.2799
v  46.7117 -2.7633 -21.7343
v  43.3520 -2.6483 31.9701
v  41.8768 39.1536 26.2852
v  37.0302 -2.6378 31.9702
v  12.2086 -4.6324 -3.4499
v  27.6244 -4.6381 -3.4498
v  30.7920 56.2633 -5.7416
v  13.6436 73.4299 -7.5290
v  57.5931 -4.5448 -39.2848
v  45.8410 -4.6880 10.0367
v  60.8546 -2.7748 -1.1135
v  62.3121 -2.7839 -21.7324
v  32.6503 68.2009 22.4736
v  31.4049 100.9797 -11.4302
v  52.2289 72.9138 -33.9925
v  32.8397 -4.5775 -30.6533
v  47.3983 -4.5829 -30.6525
v  53.2016 115.0080 -40.0284
v  25.8775 -4.6996 -50.5593
v  49.3560 -4.7070 -50.5570
v  59.2299 89.0162 -55.4959
v  65.3831 157.6835 -66.0375
v  5.3865 -2.6114 -22.2575
v  15.8455 65.4883 -24.9978
v  15.2056 92.0797 -28.1929
v  15.0233 -2.6370 -22.2550
v  20.2910 77.7788 -41.2581
v  22.4524 120.8439 -47.3922
v  1.5804 -2.7043 -37.4024
v  17.1274 -2.7453 -37.3945
v  -98.6093 -2.2181 -4.1406
v  -83.2455 96.9850 -10.0803
v  -87.6215 135.8794 -16.9336
v  -84.2528 -2.2377 -4.1402
v  -76.9780 115.0697 -35.0526
v  -81.0581 178.4042 -48.4559
v  -104.2595 -2.3660 -26.3639
v  -81.1124 -2.3965 -26.3603
# 296 vertices

vn 0.5518 -0.5711 0.6078
vn -0.6745 0.0010 0.7382
vn -0.4697 -0.6330 0.6153
vn -0.5961 0.1099 0.7953
vn 0.4861 -0.5660 0.6659
vn -0.0113 0.4697 0.8828
vn -0.1941 0.4732 0.8593
vn -0.6738 0.0782 0.7348
vn 0.5426 -0.5323 0.6499
vn -0.0828 0.4167 0.9053
vn -0.6249 0.0401 0.7797
vn 0.5192 -0.5602 0.6455
vn -0.5338 -0.5447 0.6468
vn 0.5006 0.0774 0.8622
vn -0.2372 0.5177 0.8220
vn 0.5470 -0.5215 0.6549
vn 0.6168 0.1882 0.7643
vn -0.4986 -0.5512 0.6690
vn 0.5204 0.0512 0.8524
vn -0.5139 -0.5405 0.6661
vn 0.5405 -0.5714 0.6175
vn -0.1093 0.4615 0.8804
vn -0.4856 -0.5791 0.6549
vn -0.4999 -0.5731 0.6493
vn -0.4954 -0.6011 0.6271
vn 0.5270 -0.5732 0.6275
vn -0.3907 0.4004 0.8289
vn -0.2519 0.4908 0.8341
vn -0.8228 -0.0314 -0.5675
vn -0.5007 -0.6443 -0.5781
vn 0.6064 -0.5793 -0.5447
vn 0.7118 -0.5405 -0.4485
vn 0.1055 0.9656 -0.2375
vn -0.8446 0.1331 -0.5186
vn 0.0635 0.9670 -0.2468
vn -0.8083 -0.0336 -0.5878
vn 0.6622 -0.5668 -0.4901
vn 0.0344 0.9802 -0.1952
vn -0.8267 -0.0015 -0.5626
vn 0.6839 -0.5428 -0.4875
vn 0.9161 -0.0139 -0.4007
vn 0.0540 0.9605 -0.2729
vn -0.6962 -0.5357 -0.4779
vn 0.6490 -0.5840 -0.4875
vn 0.8436 0.1430 -0.5176
vn -0.6179 -0.6190 -0.4848
vn -0.7351 -0.5104 -0.4463
vn 0.6060 -0.5886 -0.5351
vn 0.8999 -0.0568 -0.4324
vn 0.1263 0.9722 -0.1970
vn -0.6832 -0.5581 -0.4710
vn -0.5919 -0.6194 -0.5158
vn -0.5897 -0.6027 -0.5376
vn 0.6185 -0.5886 -0.5206
vn -0.1440 0.9573 -0.2507
vn 0.1114 0.9671 -0.2288
vn 0.4518 0.1957 0.8704
vn -0.3558 -0.6111 0.7071
vn 0.6791 -0.4217 0.6009
vn -0.3199 0.4943 0.8083
vn -0.6385 -0.6762 -0.3674
vn 0.6821 -0.4651 -0.5643
vn 0.8710 0.0782 -0.4851
vn -0.0693 0.9599 -0.2716
vn -0.5462 -0.5359 0.6438
vn 0.4400 0.0730 0.8950
vn -0.2295 0.5787 0.7826
vn 0.5269 -0.5749 0.6260
vn 0.9242 -0.0792 -0.3737
vn 0.1284 0.9588 -0.2534
vn -0.7064 -0.5227 -0.4773
vn 0.6167 -0.5899 -0.5213
vn 0.4443 0.0596 0.8939
vn -0.5344 -0.5235 0.6636
vn 0.5250 -0.5834 0.6197
vn -0.2182 0.5374 0.8146
vn -0.7502 -0.4931 -0.4405
vn 0.5882 -0.6072 -0.5342
vn 0.9034 -0.1249 -0.4101
vn 0.1749 0.9529 -0.2479
vn 0.4401 0.0730 0.8950
vn -0.7350 -0.5104 -0.4463
vn 0.1264 0.9722 -0.1970
vn 0.9242 -0.0791 -0.3737
vn -0.5345 -0.5393 0.6508
vn 0.4548 0.1104 0.8837
vn -0.2314 0.5506 0.8021
vn 0.5266 -0.5684 0.6322
vn 0.9298 -0.0270 -0.3671
vn 0.0529 0.9476 -0.3150
vn -0.6988 -0.5400 -0.4690
vn 0.6198 -0.5949 -0.5118
# 92 vertex normals

vt 1.0000 1.0000 1.0000
# 1 texture coords

o Plane001
g Plane001
usemtl wire_113135006
s off
f 1/1/1 2/1/2 3/1/3 
f 4/1/4 5/1/5 6/1/6 
f 7/1/7 8/1/8 9/1/9 
f 10/1/10 11/1/11 12/1/12 
f 13/1/13 14/1/14 15/1/15 
f 16/1/16 17/1/17 18/1/18 
f 19/1/19 20/1/20 21/1/21 
f 1/1/1 22/1/22 2/1/2 
f 4/1/4 23/1/23 5/1/5 
f 8/1/8 24/1/24 9/1/9 
f 11/1/11 25/1/25 12/1/12 
f 13/1/13 26/1/26 14/1/14 
f 17/1/17 27/1/27 18/1/18 
f 19/1/19 28/1/28 20/1/20 
f 29/1/29 30/1/30 3/1/3 
f 30/1/30 31/1/31 1/1/1 
f 32/1/32 33/1/33 6/1/6 
f 33/1/33 34/1/34 4/1/4 
f 35/1/35 36/1/36 8/1/8 
f 37/1/37 35/1/35 7/1/7 
f 38/1/38 39/1/39 11/1/11 
f 40/1/40 38/1/38 10/1/10 
f 41/1/41 42/1/42 15/1/15 
f 42/1/42 43/1/43 13/1/13 
f 44/1/44 45/1/45 17/1/17 
f 46/1/46 44/1/44 16/1/16 
f 47/1/47 48/1/48 21/1/21 
f 48/1/48 49/1/49 19/1/19 
f 31/1/31 50/1/50 22/1/22 
f 50/1/50 29/1/29 2/1/2 
f 34/1/34 51/1/51 23/1/23 
f 51/1/51 32/1/32 5/1/5 
f 36/1/36 52/1/52 24/1/24 
f 52/1/52 37/1/37 9/1/9 
f 39/1/39 53/1/53 25/1/25 
f 53/1/53 40/1/40 12/1/12 
f 43/1/43 54/1/54 26/1/26 
f 54/1/54 41/1/41 14/1/14 
f 45/1/45 55/1/55 27/1/27 
f 55/1/55 46/1/46 18/1/18 
f 49/1/49 56/1/56 28/1/28 
f 56/1/56 47/1/47 20/1/20 
f 29/1/29 31/1/31 30/1/30 
f 47/1/47 49/1/49 48/1/48 
f 32/1/32 34/1/34 33/1/33 
f 44/1/44 46/1/46 45/1/45 
f 35/1/35 37/1/37 36/1/36 
f 38/1/38 40/1/40 39/1/39 
f 41/1/41 43/1/43 42/1/42 
f 3/1/3 2/1/2 29/1/29 
f 1/1/1 3/1/3 30/1/30 
f 6/1/6 5/1/5 32/1/32 
f 4/1/4 6/1/6 33/1/33 
f 8/1/8 7/1/7 35/1/35 
f 7/1/7 9/1/9 37/1/37 
f 11/1/11 10/1/10 38/1/38 
f 10/1/10 12/1/12 40/1/40 
f 15/1/15 14/1/14 41/1/41 
f 13/1/13 15/1/15 42/1/42 
f 17/1/17 16/1/16 44/1/44 
f 16/1/16 18/1/18 46/1/46 
f 21/1/21 20/1/20 47/1/47 
f 19/1/19 21/1/21 48/1/48 
f 22/1/22 1/1/1 31/1/31 
f 2/1/2 22/1/22 50/1/50 
f 23/1/23 4/1/4 34/1/34 
f 5/1/5 23/1/23 51/1/51 
f 24/1/24 8/1/8 36/1/36 
f 9/1/9 24/1/24 52/1/52 
f 25/1/25 11/1/11 39/1/39 
f 12/1/12 25/1/25 53/1/53 
f 26/1/26 13/1/13 43/1/43 
f 14/1/14 26/1/26 54/1/54 
f 27/1/27 17/1/17 45/1/45 
f 18/1/18 27/1/27 55/1/55 
f 28/1/28 19/1/19 49/1/49 
f 20/1/20 28/1/28 56/1/56 
f 29/1/29 50/1/50 31/1/31 
f 47/1/47 56/1/56 49/1/49 
f 32/1/32 51/1/51 34/1/34 
f 46/1/46 55/1/55 45/1/45 
f 37/1/37 52/1/52 36/1/36 
f 40/1/40 53/1/53 39/1/39 
f 41/1/41 54/1/54 43/1/43 
f 57/1/57 58/1/58 59/1/59 
f 57/1/57 60/1/60 58/1/58 
f 61/1/61 62/1/62 59/1/59 
f 62/1/62 63/1/63 57/1/57 
f 63/1/63 64/1/64 60/1/60 
f 64/1/64 61/1/61 58/1/58 
f 61/1/61 63/1/63 62/1/62 
f 59/1/59 58/1/58 61/1/61 
f 57/1/57 59/1/59 62/1/62 
f 60/1/60 57/1/57 63/1/63 
f 58/1/58 60/1/60 64/1/64 
f 61/1/61 64/1/64 63/1/63 
f 65/1/65 66/1/66 67/1/67 
f 65/1/65 68/1/68 66/1/66 
f 69/1/69 70/1/70 67/1/67 
f 70/1/70 71/1/71 65/1/65 
f 71/1/71 72/1/72 68/1/68 
f 72/1/72 69/1/69 66/1/66 
f 69/1/69 71/1/71 70/1/70 
f 67/1/67 66/1/66 69/1/69 
f 65/1/65 67/1/67 70/1/70 
f 68/1/68 65/1/65 71/1/71 
f 66/1/66 68/1/68 72/1/72 
f 69/1/69 72/1/72 71/1/71 
f 73/1/1 74/1/2 75/1/3 
f 76/1/4 77/1/5 78/1/6 
f 79/1/7 80/1/8 81/1/9 
f 82/1/10 83/1/11 84/1/12 
f 85/1/13 86/1/14 87/1/15 
f 88/1/16 89/1/17 90/1/18 
f 91/1/19 92/1/20 93/1/21 
f 73/1/1 94/1/22 74/1/2 
f 76/1/4 95/1/23 77/1/5 
f 80/1/8 96/1/24 81/1/9 
f 83/1/11 97/1/25 84/1/12 
f 85/1/13 98/1/26 86/1/14 
f 89/1/17 99/1/27 90/1/18 
f 91/1/19 100/1/28 92/1/20 
f 101/1/29 102/1/30 75/1/3 
f 102/1/30 103/1/31 73/1/1 
f 104/1/32 105/1/33 78/1/6 
f 105/1/33 106/1/34 76/1/4 
f 107/1/35 108/1/36 80/1/8 
f 109/1/37 107/1/35 79/1/7 
f 110/1/38 111/1/39 83/1/11 
f 112/1/40 110/1/38 82/1/10 
f 113/1/41 114/1/42 87/1/15 
f 114/1/42 115/1/43 85/1/13 
f 116/1/44 117/1/45 89/1/17 
f 118/1/46 116/1/44 88/1/16 
f 119/1/47 120/1/48 93/1/21 
f 120/1/48 121/1/49 91/1/19 
f 103/1/31 122/1/50 94/1/22 
f 122/1/50 101/1/29 74/1/2 
f 106/1/34 123/1/51 95/1/23 
f 123/1/51 104/1/32 77/1/5 
f 108/1/36 124/1/52 96/1/24 
f 124/1/52 109/1/37 81/1/9 
f 111/1/39 125/1/53 97/1/25 
f 125/1/53 112/1/40 84/1/12 
f 115/1/43 126/1/54 98/1/26 
f 126/1/54 113/1/41 86/1/14 
f 117/1/45 127/1/55 99/1/27 
f 127/1/55 118/1/46 90/1/18 
f 121/1/49 128/1/56 100/1/28 
f 128/1/56 119/1/47 92/1/20 
f 101/1/29 103/1/31 102/1/30 
f 119/1/47 121/1/49 120/1/48 
f 104/1/32 106/1/34 105/1/33 
f 116/1/44 118/1/46 117/1/45 
f 107/1/35 109/1/37 108/1/36 
f 110/1/38 112/1/40 111/1/39 
f 113/1/41 115/1/43 114/1/42 
f 75/1/3 74/1/2 101/1/29 
f 73/1/1 75/1/3 102/1/30 
f 78/1/6 77/1/5 104/1/32 
f 76/1/4 78/1/6 105/1/33 
f 80/1/8 79/1/7 107/1/35 
f 79/1/7 81/1/9 109/1/37 
f 83/1/11 82/1/10 110/1/38 
f 82/1/10 84/1/12 112/1/40 
f 87/1/15 86/1/14 113/1/41 
f 85/1/13 87/1/15 114/1/42 
f 89/1/17 88/1/16 116/1/44 
f 88/1/16 90/1/18 118/1/46 
f 93/1/21 92/1/20 119/1/47 
f 91/1/19 93/1/21 120/1/48 
f 94/1/22 73/1/1 103/1/31 
f 74/1/2 94/1/22 122/1/50 
f 95/1/23 76/1/4 106/1/34 
f 77/1/5 95/1/23 123/1/51 
f 96/1/24 80/1/8 108/1/36 
f 81/1/9 96/1/24 124/1/52 
f 97/1/25 83/1/11 111/1/39 
f 84/1/12 97/1/25 125/1/53 
f 98/1/26 85/1/13 115/1/43 
f 86/1/14 98/1/26 126/1/54 
f 99/1/27 89/1/17 117/1/45 
f 90/1/18 99/1/27 127/1/55 
f 100/1/28 91/1/19 121/1/49 
f 92/1/20 100/1/28 128/1/56 
f 101/1/29 122/1/50 103/1/31 
f 119/1/47 128/1/56 121/1/49 
f 104/1/32 123/1/51 106/1/34 
f 118/1/46 127/1/55 117/1/45 
f 109/1/37 124/1/52 108/1/36 
f 112/1/40 125/1/53 111/1/39 
f 113/1/41 126/1/54 115/1/43 
f 129/1/73 130/1/74 131/1/75 
f 129/1/73 132/1/76 130/1/74 
f 133/1/77 134/1/78 131/1/75 
f 134/1/78 135/1/79 129/1/73 
f 135/1/79 136/1/80 132/1/76 
f 136/1/80 133/1/77 130/1/74 
f 133/1/77 135/1/79 134/1/78 
f 131/1/75 130/1/74 133/1/77 
f 129/1/73 131/1/75 134/1/78 
f 132/1/76 129/1/73 135/1/79 
f 130/1/74 132/1/76 136/1/80 
f 133/1/77 136/1/80 135/1/79 
f 137/1/65 138/1/66 139/1/67 
f 137/1/65 140/1/68 138/1/66 
f 141/1/69 142/1/70 139/1/67 
f 142/1/70 143/1/71 137/1/65 
f 143/1/71 144/1/72 140/1/68 
f 144/1/72 141/1/69 138/1/66 
f 141/1/69 143/1/71 142/1/70 
f 139/1/67 138/1/66 141/1/69 
f 137/1/65 139/1/67 142/1/70 
f 140/1/68 137/1/65 143/1/71 
f 138/1/66 140/1/68 144/1/72 
f 141/1/69 144/1/72 143/1/71 
f 145/1/1 146/1/2 147/1/3 
f 148/1/4 149/1/5 150/1/6 
f 151/1/7 152/1/8 153/1/9 
f 154/1/10 155/1/11 156/1/12 
f 157/1/13 158/1/14 159/1/15 
f 160/1/16 161/1/17 162/1/18 
f 163/1/19 164/1/20 165/1/21 
f 145/1/1 166/1/22 146/1/2 
f 148/1/4 167/1/23 149/1/5 
f 152/1/8 168/1/24 153/1/9 
f 155/1/11 169/1/25 156/1/12 
f 157/1/13 170/1/26 158/1/14 
f 161/1/17 171/1/27 162/1/18 
f 163/1/19 172/1/28 164/1/20 
f 173/1/29 174/1/30 147/1/3 
f 174/1/30 175/1/31 145/1/1 
f 176/1/32 177/1/33 150/1/6 
f 177/1/33 178/1/34 148/1/4 
f 179/1/35 180/1/36 152/1/8 
f 181/1/37 179/1/35 151/1/7 
f 182/1/38 183/1/39 155/1/11 
f 184/1/40 182/1/38 154/1/10 
f 185/1/41 186/1/42 159/1/15 
f 186/1/42 187/1/43 157/1/13 
f 188/1/44 189/1/45 161/1/17 
f 190/1/46 188/1/44 160/1/16 
f 191/1/47 192/1/48 165/1/21 
f 192/1/48 193/1/49 163/1/19 
f 175/1/31 194/1/50 166/1/22 
f 194/1/50 173/1/29 146/1/2 
f 178/1/34 195/1/51 167/1/23 
f 195/1/51 176/1/32 149/1/5 
f 180/1/36 196/1/52 168/1/24 
f 196/1/52 181/1/37 153/1/9 
f 183/1/39 197/1/53 169/1/25 
f 197/1/53 184/1/40 156/1/12 
f 187/1/43 198/1/54 170/1/26 
f 198/1/54 185/1/41 158/1/14 
f 189/1/45 199/1/55 171/1/27 
f 199/1/55 190/1/46 162/1/18 
f 193/1/49 200/1/56 172/1/28 
f 200/1/56 191/1/47 164/1/20 
f 173/1/29 175/1/31 174/1/30 
f 191/1/47 193/1/49 192/1/48 
f 176/1/32 178/1/34 177/1/33 
f 188/1/44 190/1/46 189/1/45 
f 179/1/35 181/1/37 180/1/36 
f 182/1/38 184/1/40 183/1/39 
f 185/1/41 187/1/43 186/1/42 
f 147/1/3 146/1/2 173/1/29 
f 145/1/1 147/1/3 174/1/30 
f 150/1/6 149/1/5 176/1/32 
f 148/1/4 150/1/6 177/1/33 
f 152/1/8 151/1/7 179/1/35 
f 151/1/7 153/1/9 181/1/37 
f 155/1/11 154/1/10 182/1/38 
f 154/1/10 156/1/12 184/1/40 
f 159/1/15 158/1/14 185/1/41 
f 157/1/13 159/1/15 186/1/42 
f 161/1/17 160/1/16 188/1/44 
f 160/1/16 162/1/18 190/1/46 
f 165/1/21 164/1/20 191/1/47 
f 163/1/19 165/1/21 192/1/48 
f 166/1/22 145/1/1 175/1/31 
f 146/1/2 166/1/22 194/1/50 
f 167/1/23 148/1/4 178/1/34 
f 149/1/5 167/1/23 195/1/51 
f 168/1/24 152/1/8 180/1/36 
f 153/1/9 168/1/24 196/1/52 
f 169/1/25 155/1/11 183/1/39 
f 156/1/12 169/1/25 197/1/53 
f 170/1/26 157/1/13 187/1/43 
f 158/1/14 170/1/26 198/1/54 
f 171/1/27 161/1/17 189/1/45 
f 162/1/18 171/1/27 199/1/55 
f 172/1/28 163/1/19 193/1/49 
f 164/1/20 172/1/28 200/1/56 
f 173/1/29 194/1/50 175/1/31 
f 191/1/47 200/1/56 193/1/49 
f 176/1/32 195/1/51 178/1/34 
f 190/1/46 199/1/55 189/1/45 
f 181/1/37 196/1/52 180/1/36 
f 184/1/40 197/1/53 183/1/39 
f 185/1/41 198/1/54 187/1/43 
f 201/1/73 202/1/74 203/1/75 
f 201/1/73 204/1/76 202/1/74 
f 205/1/77 206/1/78 203/1/75 
f 206/1/78 207/1/79 201/1/73 
f 207/1/79 208/1/80 204/1/76 
f 208/1/80 205/1/77 202/1/74 
f 205/1/77 207/1/79 206/1/78 
f 203/1/75 202/1/74 205/1/77 
f 201/1/73 203/1/75 206/1/78 
f 204/1/76 201/1/73 207/1/79 
f 202/1/74 204/1/76 208/1/80 
f 205/1/77 208/1/80 207/1/79 
f 209/1/65 210/1/81 211/1/67 
f 209/1/65 212/1/68 210/1/81 
f 213/1/69 214/1/70 211/1/67 
f 214/1/70 215/1/71 209/1/65 
f 215/1/71 216/1/72 212/1/68 
f 216/1/72 213/1/69 210/1/81 
f 213/1/69 215/1/71 214/1/70 
f 211/1/67 210/1/81 213/1/69 
f 209/1/65 211/1/67 214/1/70 
f 212/1/68 209/1/65 215/1/71 
f 210/1/81 212/1/68 216/1/72 
f 213/1/69 216/1/72 215/1/71 
f 217/1/1 218/1/2 219/1/3 
f 220/1/4 221/1/5 222/1/6 
f 223/1/7 224/1/8 225/1/9 
f 226/1/10 227/1/11 228/1/12 
f 229/1/13 230/1/14 231/1/15 
f 232/1/16 233/1/17 234/1/18 
f 235/1/19 236/1/20 237/1/21 
f 217/1/1 238/1/22 218/1/2 
f 220/1/4 239/1/23 221/1/5 
f 224/1/8 240/1/24 225/1/9 
f 227/1/11 241/1/25 228/1/12 
f 229/1/13 242/1/26 230/1/14 
f 233/1/17 243/1/27 234/1/18 
f 235/1/19 244/1/28 236/1/20 
f 245/1/29 246/1/30 219/1/3 
f 246/1/30 247/1/31 217/1/1 
f 248/1/32 249/1/33 222/1/6 
f 249/1/33 250/1/34 220/1/4 
f 251/1/35 252/1/36 224/1/8 
f 253/1/37 251/1/35 223/1/7 
f 254/1/38 255/1/39 227/1/11 
f 256/1/40 254/1/38 226/1/10 
f 257/1/41 258/1/42 231/1/15 
f 258/1/42 259/1/43 229/1/13 
f 260/1/44 261/1/45 233/1/17 
f 262/1/46 260/1/44 232/1/16 
f 263/1/82 264/1/48 237/1/21 
f 264/1/48 265/1/49 235/1/19 
f 247/1/31 266/1/83 238/1/22 
f 266/1/83 245/1/29 218/1/2 
f 250/1/34 267/1/51 239/1/23 
f 267/1/51 248/1/32 221/1/5 
f 252/1/36 268/1/52 240/1/24 
f 268/1/52 253/1/37 225/1/9 
f 255/1/39 269/1/53 241/1/25 
f 269/1/53 256/1/40 228/1/12 
f 259/1/43 270/1/54 242/1/26 
f 270/1/54 257/1/41 230/1/14 
f 261/1/45 271/1/55 243/1/27 
f 271/1/55 262/1/46 234/1/18 
f 265/1/49 272/1/56 244/1/28 
f 272/1/56 263/1/82 236/1/20 
f 245/1/29 247/1/31 246/1/30 
f 263/1/82 265/1/49 264/1/48 
f 248/1/32 250/1/34 249/1/33 
f 260/1/44 262/1/46 261/1/45 
f 251/1/35 253/1/37 252/1/36 
f 254/1/38 256/1/40 255/1/39 
f 257/1/41 259/1/43 258/1/42 
f 219/1/3 218/1/2 245/1/29 
f 217/1/1 219/1/3 246/1/30 
f 222/1/6 221/1/5 248/1/32 
f 220/1/4 222/1/6 249/1/33 
f 224/1/8 223/1/7 251/1/35 
f 223/1/7 225/1/9 253/1/37 
f 227/1/11 226/1/10 254/1/38 
f 226/1/10 228/1/12 256/1/40 
f 231/1/15 230/1/14 257/1/41 
f 229/1/13 231/1/15 258/1/42 
f 233/1/17 232/1/16 260/1/44 
f 232/1/16 234/1/18 262/1/46 
f 237/1/21 236/1/20 263/1/82 
f 235/1/19 237/1/21 264/1/48 
f 238/1/22 217/1/1 247/1/31 
f 218/1/2 238/1/22 266/1/83 
f 239/1/23 220/1/4 250/1/34 
f 221/1/5 239/1/23 267/1/51 
f 240/1/24 224/1/8 252/1/36 
f 225/1/9 240/1/24 268/1/52 
f 241/1/25 227/1/11 255/1/39 
f 228/1/12 241/1/25 269/1/53 
f 242/1/26 229/1/13 259/1/43 
f 230/1/14 242/1/26 270/1/54 
f 243/1/27 233/1/17 261/1/45 
f 234/1/18 243/1/27 271/1/55 
f 244/1/28 235/1/19 265/1/49 
f 236/1/20 244/1/28 272/1/56 
f 245/1/29 266/1/83 247/1/31 
f 263/1/82 272/1/56 265/1/49 
f 248/1/32 267/1/51 250/1/34 
f 262/1/46 271/1/55 261/1/45 
f 253/1/37 268/1/52 252/1/36 
f 256/1/40 269/1/53 255/1/39 
f 257/1/41 270/1/54 259/1/43 
f 273/1/73 274/1/74 275/1/75 
f 273/1/73 276/1/76 274/1/74 
f 277/1/77 278/1/78 275/1/75 
f 278/1/78 279/1/79 273/1/73 
f 279/1/79 280/1/80 276/1/76 
f 280/1/80 277/1/77 274/1/74 
f 277/1/77 279/1/79 278/1/78 
f 275/1/75 274/1/74 277/1/77 
f 273/1/73 275/1/75 278/1/78 
f 276/1/76 273/1/73 279/1/79 
f 274/1/74 276/1/76 280/1/80 
f 277/1/77 280/1/80 279/1/79 
f 281/1/65 282/1/81 283/1/67 
f 281/1/65 284/1/68 282/1/81 
f 285/1/84 286/1/70 283/1/67 
f 286/1/70 287/1/71 281/1/65 
f 287/1/71 288/1/72 284/1/68 
f 288/1/72 285/1/84 282/1/81 
f 285/1/84 287/1/71 286/1/70 
f 283/1/67 282/1/81 285/1/84 
f 281/1/65 283/1/67 286/1/70 
f 284/1/68 281/1/65 287/1/71 
f 282/1/81 284/1/68 288/1/72 
f 285/1/84 288/1/72 287/1/71 
f 289/1/85 290/1/86 291/1/87 
f 289/1/85 292/1/88 290/1/86 
f 293/1/89 294/1/90 291/1/87 
f 294/1/90 295/1/91 289/1/85 
f 295/1/91 296/1/92 292/1/88 
f 296/1/92 293/1/89 290/1/86 
f 293/1/89 295/1/91 294/1/90 
f 291/1/87 290/1/86 293/1/89 
f 289/1/85 291/1/87 294/1/90 
f 292/1/88 289/1/85 295/1/91 
f 290/1/86 292/1/88 296/1/92 
f 293/1/89 296/1/92 295/1/91 
# 0 polygons - 444 triangles

