# 3ds Max Wavefront OBJ Exporter v0.97b - (c)2007 guruware
# File Created: 04.06.2017 14:41:36

mtllib roca alargada.mtl

#
# object Group54682
#

v  -0.4869 2.2398 -0.2617
v  -0.1994 2.7641 -0.4483
v  -0.3540 2.2193 -0.5137
v  -0.2291 2.1310 -0.5772
v  -0.2766 2.2399 -0.5534
v  -0.1508 1.8614 -0.6212
v  -0.2910 0.9651 -0.7029
v  -0.6449 -0.7745 -0.6157
v  -0.8574 -0.8823 -0.4311
v  -0.9819 -0.4824 -0.3246
v  -0.6421 -0.4428 -0.6459
v  -1.0373 -0.8553 -0.1765
v  -0.8721 -1.0491 -0.3576
v  -0.2461 -0.4994 -0.7840
v  -0.6193 -1.0981 -0.4586
v  -0.0527 -1.0665 -0.5322
v  -0.2522 -1.3599 -0.2042
v  -0.8494 -1.1426 -0.2378
v  -0.6638 -1.2905 -0.1861
v  -0.7469 -1.2219 0.0653
v  -0.0419 -1.3588 0.1338
v  0.2014 -1.1851 0.4573
v  -0.3412 -1.1324 0.5297
v  0.2980 -1.2969 -0.3807
v  0.2469 -0.4561 -0.7024
v  0.0943 1.2695 -0.6663
v  0.8100 0.3179 -0.3496
v  -0.7588 0.3870 -0.3994
v  -0.4938 1.1274 -0.5445
v  -0.5123 -0.0852 -0.6831
v  0.6036 1.6180 0.1781
v  0.2608 0.7403 0.7597
v  0.7970 0.4109 0.0680
v  -0.0998 1.0527 -0.7312
v  -0.1343 0.4504 -0.7835
v  0.2331 2.5086 -0.3527
v  0.6809 1.4181 -0.3731
v  -0.0217 2.4403 0.7581
v  -0.3157 2.0182 0.7061
v  -0.1958 0.4878 0.8176
v  -0.3947 3.0789 0.1436
v  -0.2943 3.0445 -0.1171
v  -0.4540 2.6381 0.3919
v  -0.3413 3.1076 0.3988
v  0.4513 -1.2534 0.0002
v  0.2001 -0.9044 0.7756
v  0.6697 -0.9196 0.4012
v  -0.1448 3.1285 0.3657
v  -0.2403 2.9814 0.6334
v  0.2979 2.6986 0.3781
v  0.1571 2.9820 -0.0653
v  0.4329 2.5317 -0.1401
v  0.0901 -0.4914 0.9323
v  0.5521 -0.5833 0.7108
v  0.5764 -1.0068 -0.4540
v  0.1494 -0.9987 -0.6554
v  -0.7388 0.8487 0.1591
v  -0.5883 0.6778 0.4207
v  0.7984 -0.9343 -0.1636
v  -0.8506 0.0510 0.1037
v  -0.9141 -0.5274 0.2011
v  0.9061 -0.5566 0.1722
v  -0.3268 -0.7973 0.7877
v  -0.8919 -0.9266 0.2349
v  -0.2755 -0.4603 0.8670
v  0.8388 -0.5990 -0.3487
v  0.9388 -0.2892 -0.1763
# 67 vertices

vn -0.9359 0.1959 -0.2927
vn -0.2140 0.4980 -0.8404
vn -0.7020 0.1897 -0.6864
vn -0.0525 0.1586 -0.9859
vn -0.2862 0.1913 -0.9389
vn 0.0726 0.1587 -0.9846
vn -0.3800 0.0996 -0.9196
vn -0.3951 -0.2617 -0.8806
vn -0.6592 -0.1990 -0.7252
vn -0.9276 0.1021 -0.3595
vn -0.5316 0.0108 -0.8469
vn -0.9767 -0.1953 -0.0891
vn -0.6426 -0.4988 -0.5816
vn -0.0889 -0.1337 -0.9870
vn -0.2505 -0.6055 -0.7554
vn -0.1691 -0.6085 -0.7753
vn -0.1004 -0.9529 -0.2863
vn -0.6784 -0.6994 -0.2250
vn -0.3442 -0.9167 -0.2031
vn -0.5442 -0.7866 0.2916
vn 0.0268 -0.9739 0.2255
vn 0.2459 -0.8228 0.5124
vn -0.2767 -0.7334 0.6210
vn 0.2639 -0.8534 -0.4496
vn 0.3385 -0.0358 -0.9403
vn 0.3178 0.1143 -0.9413
vn 0.8414 0.1126 -0.5286
vn -0.8827 0.1520 -0.4447
vn -0.6801 0.1256 -0.7223
vn -0.4636 0.0828 -0.8822
vn 0.9229 0.1524 0.3536
vn 0.5011 0.0918 0.8605
vn 0.9438 0.1458 0.2966
vn 0.0238 0.1012 -0.9946
vn 0.1833 -0.0122 -0.9830
vn 0.5063 0.3392 -0.7929
vn 0.8421 0.1706 -0.5117
vn 0.2553 0.2027 0.9454
vn -0.5949 0.0670 0.8010
vn -0.3637 0.0686 0.9290
vn -0.7035 0.7000 -0.1232
vn -0.4014 0.7764 -0.4858
vn -0.9466 0.1395 0.2908
vn -0.5801 0.7561 0.3029
vn 0.4936 -0.8629 0.1082
vn 0.2283 -0.5330 0.8147
vn 0.7100 -0.5336 0.4594
vn 0.3075 0.9150 0.2611
vn -0.0960 0.5385 0.8371
vn 0.7778 0.4320 0.4565
vn 0.5686 0.7707 -0.2877
vn 0.8788 0.3893 -0.2761
vn 0.1241 -0.0991 0.9873
vn 0.6534 -0.1203 0.7474
vn 0.5923 -0.4482 -0.6696
vn 0.0712 -0.4443 -0.8931
vn -0.9664 0.1167 0.2290
vn -0.7798 0.0174 0.6258
vn 0.8440 -0.5182 -0.1387
vn -0.9384 0.1682 0.3019
vn -0.8857 0.0901 0.4555
vn 0.9499 -0.1177 0.2896
vn -0.4111 -0.3380 0.8466
vn -0.7964 -0.3121 0.5180
vn -0.4597 -0.0230 0.8878
vn 0.7977 -0.1499 -0.5841
vn 0.9844 0.0214 -0.1744
# 67 vertex normals

vt 0.1206 0.0735 0.0000
vt 0.1302 0.1296 0.0000
vt 0.0904 0.1248 0.0000
vt 0.0868 0.1801 0.0000
vt 0.0874 0.1552 0.0000
vt 0.0651 0.2432 0.0000
vt 0.5723 0.0019 0.0000
vt 0.6158 0.0275 0.0000
vt 0.8393 0.2746 0.0000
vt 0.5554 0.0059 0.0000
vt 0.9273 0.4941 0.0000
vt 0.9059 0.5425 0.0000
vt 0.8199 0.5072 0.0000
vt 0.8955 0.4464 0.0000
vt 0.8237 0.5543 0.0000
vt 0.8856 0.5867 0.0000
vt 0.1479 0.8163 0.0000
vt 0.1804 0.9450 0.0000
vt 0.1052 0.8764 0.0000
vt 0.2134 0.8559 0.0000
vt 0.2890 0.9532 0.0000
vt 0.1511 0.9980 0.0000
vt 0.1430 0.9714 0.0000
vt 0.1230 0.9338 0.0000
vt 0.8500 0.6804 0.0000
vt 0.7955 0.6551 0.0000
vt 0.8590 0.6125 0.0000
vt 0.8217 0.7545 0.0000
vt 0.7469 0.7907 0.0000
vt 0.6494 0.7976 0.0000
vt 0.6933 0.6967 0.0000
vt 0.3918 0.9173 0.0000
vt 0.2923 0.8541 0.0000
vt 0.1696 0.7720 0.0000
vt 0.0789 0.4093 0.0000
vt 0.2727 0.6445 0.0000
vt 0.7843 0.3595 0.0000
vt 0.8112 0.3103 0.0000
vt 0.8554 0.3889 0.0000
vt 0.0290 0.7663 0.0000
vt 0.0019 0.6871 0.0000
vt 0.0378 0.6592 0.0000
vt 0.0606 0.8301 0.0000
vt 0.2814 0.3872 0.0000
vt 0.4667 0.5311 0.0000
vt 0.3083 0.5654 0.0000
vt 0.7462 0.1238 0.0000
vt 0.8547 0.2545 0.0000
vt 0.1553 0.1901 0.0000
vt 0.1883 0.4218 0.0000
vt 0.3311 0.1576 0.0000
vt 0.3983 0.1834 0.0000
vt 0.5498 0.5247 0.0000
vt 0.4867 0.0155 0.0000
vt 0.5337 0.0103 0.0000
vt 0.2334 0.0401 0.0000
vt 0.1849 0.0803 0.0000
vt 0.3797 0.0271 0.0000
vt 0.4039 0.1118 0.0000
vt 0.3097 0.0601 0.0000
vt 0.3541 0.8253 0.0000
vt 0.4795 0.8380 0.0000
vt 0.5563 0.7574 0.0000
vt 0.4284 0.7526 0.0000
vt 0.2989 0.0824 0.0000
vt 0.3410 0.1150 0.0000
vt 0.2649 0.1857 0.0000
vt 0.2134 0.1608 0.0000
vt 0.2012 0.2074 0.0000
vt 0.0602 0.6400 0.0000
vt 0.5435 0.6775 0.0000
vt 0.5086 0.6981 0.0000
vt 0.3022 0.7868 0.0000
vt 0.2276 0.8244 0.0000
vt 0.6800 0.3861 0.0000
vt 0.6394 0.4246 0.0000
vt 0.3381 0.7658 0.0000
vt 0.7227 0.4553 0.0000
vt 0.7558 0.5185 0.0000
vt 0.3608 0.6977 0.0000
vt 0.0538 0.4338 0.0000
vt 0.6215 0.6684 0.0000
vt 0.7830 0.5847 0.0000
vt 0.5969 0.6255 0.0000
vt 0.2970 0.7235 0.0000
vt 0.2978 0.6510 0.0000
vt 0.2042 0.9867 0.0000
# 87 texture coords

g Group54682
usemtl _roca_alargadadefaultMat
s 1
f 1/1/1 2/2/2 3/3/3 
f 4/4/4 5/5/5 2/2/2 
f 4/4/4 2/2/2 6/6/6 
f 4/7/4 6/8/6 7/9/7 
f 4/7/4 7/9/7 5/10/5 
f 8/11/8 9/12/9 10/13/10 
f 10/13/10 11/14/11 8/11/8 
f 12/15/12 9/12/9 13/16/13 
f 14/17/14 15/18/15 8/19/8 
f 15/18/15 16/20/16 17/21/17 
f 15/18/15 18/22/18 13/23/13 
f 15/18/15 13/23/13 9/24/9 
f 19/25/19 20/26/20 18/27/18 
f 19/25/19 17/28/17 20/26/20 
f 17/28/17 21/29/21 20/26/20 
f 21/29/21 22/30/22 23/31/23 
f 21/32/21 17/21/17 24/33/24 
f 24/33/24 17/21/17 16/20/16 
f 25/34/25 26/35/26 27/36/27 
f 28/37/28 29/38/29 30/39/30 
f 28/37/28 30/39/30 11/14/11 
f 30/40/30 29/41/29 7/42/7 
f 30/40/30 7/42/7 14/17/14 
f 30/40/30 14/17/14 11/43/11 
f 31/44/31 32/45/32 33/46/33 
f 7/9/7 34/47/34 35/48/35 
f 26/35/26 6/6/6 2/2/2 
f 36/49/36 37/50/37 26/35/26 
f 38/51/38 39/52/39 40/53/40 
f 28/37/28 1/54/1 29/38/29 
f 29/38/29 1/54/1 3/55/3 
f 3/55/3 7/9/7 29/38/29 
f 41/56/41 42/57/42 1/1/1 
f 41/58/41 1/54/1 43/59/43 
f 41/58/41 43/59/43 44/60/44 
f 34/47/34 7/9/7 6/8/6 
f 15/18/15 9/24/9 8/19/8 
f 14/17/14 8/19/8 11/43/11 
f 7/9/7 3/55/3 5/10/5 
f 2/2/2 5/5/5 3/3/3 
f 45/61/45 22/62/22 21/32/21 
f 46/63/46 22/62/22 47/64/47 
f 48/65/48 42/57/42 41/56/41 
f 49/66/49 39/52/39 38/51/38 
f 48/65/48 50/67/50 51/68/51 
f 37/50/37 52/69/52 31/44/31 
f 38/51/38 40/53/40 32/45/32 
f 46/63/46 23/31/23 22/30/22 
f 7/42/7 35/70/35 14/17/14 
f 14/17/14 35/70/35 26/35/26 
f 48/65/48 38/51/38 50/67/50 
f 50/67/50 38/51/38 32/45/32 
f 40/53/40 53/71/53 32/45/32 
f 32/45/32 53/71/53 54/72/54 
f 45/61/45 47/64/47 22/62/22 
f 55/73/55 24/33/24 56/74/56 
f 57/75/57 43/59/43 1/54/1 
f 39/52/39 58/76/58 40/53/40 
f 59/77/59 47/64/47 45/61/45 
f 33/46/33 32/45/32 54/72/54 
f 12/15/12 13/16/13 18/27/18 
f 20/26/20 12/15/12 18/27/18 
f 26/35/26 37/50/37 27/36/27 
f 37/50/37 31/44/31 33/46/33 
f 40/53/40 60/78/60 61/79/61 
f 28/37/28 11/14/11 10/13/10 
f 27/36/27 37/50/37 33/46/33 
f 59/77/59 62/80/62 47/64/47 
f 57/75/57 1/54/1 28/37/28 
f 60/78/60 28/37/28 10/13/10 
f 26/35/26 35/70/35 34/81/34 
f 26/35/26 34/81/34 6/6/6 
f 23/31/23 63/82/63 64/83/64 
f 46/63/46 63/82/63 23/31/23 
f 36/49/36 52/69/52 37/50/37 
f 51/68/51 42/57/42 48/65/48 
f 40/53/40 61/79/61 65/84/65 
f 40/53/40 65/84/65 53/71/53 
f 16/20/16 15/18/15 14/17/14 
f 14/17/14 26/35/26 25/34/25 
f 39/52/39 43/59/43 57/75/57 
f 49/66/49 43/59/43 39/52/39 
f 27/36/27 66/85/66 25/34/25 
f 62/80/62 59/77/59 67/86/67 
f 20/26/20 23/31/23 64/83/64 
f 21/29/21 23/31/23 20/26/20 
f 33/46/33 62/80/62 67/86/67 
f 33/46/33 54/72/54 62/80/62 
f 20/26/20 64/83/64 12/15/12 
f 60/78/60 10/13/10 61/79/61 
f 46/63/46 47/64/47 54/72/54 
f 54/72/54 47/64/47 62/80/62 
f 51/68/51 36/49/36 2/2/2 
f 26/35/26 2/2/2 36/49/36 
f 21/32/21 24/33/24 45/61/45 
f 24/33/24 59/77/59 45/61/45 
f 63/82/63 61/79/61 64/83/64 
f 12/15/12 64/83/64 61/79/61 
f 48/65/48 41/56/41 44/60/44 
f 44/60/44 43/59/43 49/66/49 
f 25/34/25 56/74/56 14/17/14 
f 55/73/55 56/74/56 25/34/25 
f 63/82/63 65/84/65 61/79/61 
f 53/71/53 65/84/65 63/82/63 
f 50/67/50 32/45/32 31/44/31 
f 52/69/52 50/67/50 31/44/31 
f 56/74/56 16/20/16 14/17/14 
f 24/33/24 16/20/16 56/74/56 
f 60/78/60 57/75/57 28/37/28 
f 39/52/39 57/75/57 58/76/58 
f 51/68/51 52/69/52 36/49/36 
f 52/69/52 51/68/51 50/67/50 
f 66/85/66 67/86/67 59/77/59 
f 59/77/59 24/33/24 55/73/55 
f 51/68/51 2/2/2 42/57/42 
f 1/1/1 42/57/42 2/2/2 
f 60/78/60 58/76/58 57/75/57 
f 40/53/40 58/76/58 60/78/60 
f 15/18/15 19/87/19 18/22/18 
f 17/21/17 19/87/19 15/18/15 
f 55/73/55 25/34/25 66/85/66 
f 59/77/59 55/73/55 66/85/66 
f 12/15/12 61/79/61 10/13/10 
f 12/15/12 10/13/10 9/12/9 
f 53/71/53 63/82/63 46/63/46 
f 53/71/53 46/63/46 54/72/54 
f 66/85/66 27/36/27 67/86/67 
f 27/36/27 33/46/33 67/86/67 
f 48/65/48 44/60/44 49/66/49 
f 48/65/48 49/66/49 38/51/38 
# 0 polygons - 130 triangles

